<svg width="123" height="84" viewBox="0 0 123 84" fill="none" xmlns="http://www.w3.org/2000/svg">
<path d="M26.9219 36.3944C26.0126 35.384 24.8202 34.878 23.3414 34.878C21.6737 34.878 20.3201 35.3927 19.2787 36.4221C18.2356 37.4515 17.7157 38.8056 17.7157 40.4844V58.219H8V26.4684H17.7174V29.1006C18.74 27.9952 19.9341 27.1368 21.298 26.5271C22.662 25.9174 24.1203 25.6117 25.6729 25.6117C28.0971 25.6117 30.2383 26.2214 32.0946 27.4425C33.9509 28.6636 35.3989 30.3701 36.4421 32.5618C37.4835 34.7553 38.005 37.2632 38.005 40.0837V58.2173H28.2876V40.3687C28.2876 38.7296 27.8329 37.4031 26.9236 36.3927L26.9219 36.3944Z" fill="#FBFBFF"/>
<path d="M64.028 55.6438C61.8302 57.9703 58.8004 59.1327 54.9367 59.1327C52.0956 59.1327 49.5101 58.4073 47.1803 56.9582C44.8504 55.5091 43.0215 53.5073 41.6971 50.9511C40.3709 48.3966 39.7086 45.5364 39.7086 42.3705C39.7086 39.2046 40.3709 36.3444 41.6971 33.7899C43.0233 31.2354 44.8504 29.2232 47.1803 27.7551C49.5101 26.287 52.0956 25.553 54.9367 25.553C58.8381 25.553 61.8697 26.7361 64.028 29.0989V16H73.3474V58.2173H64.028V55.6438ZM61.614 47.6055C62.9969 46.2134 63.6883 44.469 63.6883 42.3705C63.6883 40.272 63.0072 38.5292 61.6432 37.1354C60.2793 35.7433 58.5739 35.0473 56.5289 35.0473C54.4838 35.0473 52.7784 35.7433 51.4145 37.1354C50.0506 38.5275 49.3694 40.272 49.3694 42.3705C49.3694 44.469 50.0609 46.2134 51.4437 47.6055C52.8265 48.9976 54.5215 49.6937 56.5289 49.6937C58.5362 49.6937 60.2312 48.9976 61.614 47.6055Z" fill="#FBFBFF"/>
<path d="M86.5871 58.1603L74.6548 26.4684H84.8269L91.7032 46.4328L98.5795 26.4684H108.808L93.0671 68H82.3272L86.5889 58.1603H86.5871Z" fill="#FBFBFF"/>
<path d="M115 48.8353V58.2173H104.828V48.8353H115Z" fill="#C73222"/>
</svg>
